<svg width="44" height="40" viewBox="0 0 44 40" fill="none" xmlns="http://www.w3.org/2000/svg">
<g clip-path="url(#clip0_451_1329)">
<rect width="20" height="20" transform="matrix(0.866025 0.5 -0.866025 0.5 21.6506 0)" fill="white"/>
<rect width="20" height="20" transform="matrix(0.866025 0.5 0 1 4.33013 10)" fill="#C0C0C0"/>
<rect width="20" height="20" transform="matrix(0.866025 -0.5 0 1 21.6506 20)" fill="black"/>
<rect width="10" height="10" transform="matrix(0.866025 0.5 -0.866025 0.5 8.66026 17.5)" fill="white"/>
<rect width="10" height="10" transform="matrix(0.866025 0.5 0 1 0 22.5)" fill="#C0C0C0"/>
<rect width="10" height="10" transform="matrix(0.866025 -0.5 0 1 8.66026 27.5)" fill="black"/>
<rect width="10" height="10" transform="matrix(0.866025 0.5 -0.866025 0.5 34.641 17.5)" fill="white"/>
<rect width="10" height="10" transform="matrix(0.866025 0.5 0 1 25.9808 22.5)" fill="#C0C0C0"/>
<rect width="10" height="10" transform="matrix(0.866025 -0.5 0 1 34.641 27.5)" fill="black"/>
</g>
<defs>
<clipPath id="clip0_451_1329">
<rect width="43.3013" height="40" fill="white"/>
</clipPath>
</defs>
</svg>
